<?xml version="1.0" encoding="UTF-8" standalone="no"?>
<svg
   xmlns:dc="http://purl.org/dc/elements/1.1/"
   xmlns:cc="http://creativecommons.org/ns#"
   xmlns:rdf="http://www.w3.org/1999/02/22-rdf-syntax-ns#"
   xmlns:svg="http://www.w3.org/2000/svg"
   xmlns="http://www.w3.org/2000/svg"
   xmlns:sodipodi="http://sodipodi.sourceforge.net/DTD/sodipodi-0.dtd"
   xmlns:inkscape="http://www.inkscape.org/namespaces/inkscape"
   viewBox="0 0 348 348"
   fill="none"
   font-family="Arial"
   id="svg2"
   version="1.1"
   inkscape:version="0.91 r13725"
   sodipodi:docname="The Wire.svg">
  <metadata
     id="metadata86">
    <rdf:RDF>
      <cc:Work
         rdf:about="">
        <dc:format>image/svg+xml</dc:format>
        <dc:type
           rdf:resource="http://purl.org/dc/dcmitype/StillImage" />
      </cc:Work>
    </rdf:RDF>
  </metadata>
  <defs
     id="defs84" />
  <sodipodi:namedview
     pagecolor="#ffffff"
     bordercolor="#666666"
     borderopacity="1"
     objecttolerance="10"
     gridtolerance="10"
     guidetolerance="10"
     inkscape:pageopacity="0"
     inkscape:pageshadow="2"
     inkscape:window-width="1440"
     inkscape:window-height="795"
     id="namedview82"
     showgrid="false"
     inkscape:zoom="0.95906437"
     inkscape:cx="188.73478"
     inkscape:cy="103.73723"
     inkscape:window-x="0"
     inkscape:window-y="1"
     inkscape:window-maximized="1"
     inkscape:current-layer="svg2" />
  <path
     d="M5 5.8h337v337.6H5z"
     stroke-width="2"
     stroke="#000"
     id="path4" />
  <path
     d="M282.7 40.6c0-8.4 7-15.2 15.6-15.2 4.1 0 8 1.6 11 4.4a15 15 0 0 1 4.6 10.8c0 8.3-7 15.1-15.6 15.1s-15.6-6.8-15.6-15.1z"
     stroke-width="2"
     stroke="#000"
     id="path6" />
  <path
     style="fill:#000000;fill-opacity:1;stroke:#000000;stroke-width:0.38684162;stroke-opacity:1"
     inkscape:connector-curvature="0"
     id="path4202"
     d="m 67.871954,168.11241 0,-7.89424 211.572616,0 0,15.8122 -211.572616,0 0,-7.91796 z" />
  <path
     d="m 43.200083,169.95918 0,-29.91856 55.420197,0 0,59.92698 -55.420197,0 0,-30.00842 z"
     id="path4198"
     inkscape:connector-curvature="0"
     style="fill:#ffffff;fill-opacity:1;stroke:#000000;stroke-width:0.38543636;stroke-opacity:1" />
  <ellipse
     ry="37.874207"
     rx="39.389175"
     cy="67.102448"
     cx="174.50317"
     id="ellipse4175"
     style="fill:#000000;fill-opacity:1;stroke:#000000;stroke-width:0.96863478;stroke-linejoin:miter;stroke-miterlimit:10;stroke-dasharray:none;stroke-opacity:1" />
  <ellipse
     style="fill:#000000;fill-opacity:1;stroke:#000000;stroke-width:0.96863478;stroke-linejoin:miter;stroke-miterlimit:10;stroke-dasharray:none;stroke-opacity:1"
     id="ellipse4177"
     cx="270.08218"
     cy="283.78964"
     rx="39.389175"
     ry="37.874207" />
  <ellipse
     style="fill:#000000;fill-opacity:1;stroke:#000000;stroke-width:0.96863478;stroke-linejoin:miter;stroke-miterlimit:10;stroke-dasharray:none;stroke-opacity:1"
     id="ellipse4181"
     cx="69.1922"
     cy="282.55612"
     rx="39.389175"
     ry="37.874207" />
  <path
     style="fill:#ffffff;fill-opacity:1;stroke:#000000;stroke-width:0.38543636;stroke-opacity:1"
     inkscape:connector-curvature="0"
     id="path4155"
     d="m 242.38527,170.68117 0,-29.91855 55.42019,0 0,59.92698 -55.42019,0 0,-30.00843 z" />
  <path
     style="fill:#ffffff;fill-opacity:1;stroke:#000000;stroke-width:0.51731503;stroke-opacity:1"
     inkscape:connector-curvature="0"
     id="path4157"
     d="m 20.278221,56.294336 0,-38.181674 78.227332,0 0,76.478022 -78.227332,0 0,-38.296348 z" />
  <text
     xml:space="preserve"
     style="font-style:normal;font-weight:normal;font-size:40px;line-height:125%;font-family:sans-serif;letter-spacing:0px;word-spacing:0px;fill:#000000;fill-opacity:1;stroke:none;stroke-width:1px;stroke-linecap:butt;stroke-linejoin:miter;stroke-opacity:1"
     x="23.981709"
     y="80.542702"
     id="text4159"
     sodipodi:linespacing="125%"><tspan
       sodipodi:role="line"
       id="tspan4161"
       x="23.981709"
       y="80.542702"
       style="font-size:17.5px">INITIATE</tspan></text>
  <path
     style="fill:#ffffff;fill-opacity:1;stroke:#000000;stroke-width:0.47545189;stroke-opacity:1"
     inkscape:connector-curvature="0"
     id="path4143"
     d="m 141.37923,278.29726 0,-40.28481 62.62897,0 0,80.69063 -62.62897,0 0,-40.40582 z" />
  <path
     d="m 150.66275,266.50905 0,-19.04234 44.06193,0 0,38.14188 -44.06193,0 0,-19.09954 z"
     id="path4145"
     inkscape:connector-curvature="0"
     style="fill:#000000;fill-opacity:1;stroke:#000000;stroke-width:0.27418289;stroke-opacity:1" />
  <path
     style="fill:#000000;fill-opacity:1;stroke:#000000;stroke-width:0.15523635;stroke-opacity:1"
     inkscape:connector-curvature="0"
     id="path4147"
     d="m 150.60328,307.56204 0,-6.08773 44.18087,0 0,12.19375 -44.18087,0 0,-6.10602 z" />
</svg>
